<mxfile host="app.diagrams.net" agent="Mozilla/5.0 (Windows NT 10.0; Win64; x64) AppleWebKit/537.36 (KHTML, like Gecko) Chrome/129.0.0.0 Safari/537.36" version="24.7.17">
  <diagram name="Page-1" id="pVkmn3v7MCIhRTKhNpZ1">
    <mxGraphModel dx="1187" dy="2541" grid="1" gridSize="10" guides="1" tooltips="1" connect="1" arrows="1" fold="1" page="1" pageScale="1" pageWidth="827" pageHeight="1169" math="0" shadow="0">
      <root>
        <mxCell id="0" />
        <mxCell id="1" parent="0" />
        <mxCell id="Tm7bUbzxlXtxKHM9v3Qe-3" value="" style="edgeStyle=orthogonalEdgeStyle;rounded=0;orthogonalLoop=1;jettySize=auto;html=1;" edge="1" parent="1" source="Tm7bUbzxlXtxKHM9v3Qe-1" target="Tm7bUbzxlXtxKHM9v3Qe-2">
          <mxGeometry relative="1" as="geometry" />
        </mxCell>
        <mxCell id="Tm7bUbzxlXtxKHM9v3Qe-1" value="Start" style="ellipse;whiteSpace=wrap;html=1;" vertex="1" parent="1">
          <mxGeometry x="354" y="-10" width="120" height="80" as="geometry" />
        </mxCell>
        <mxCell id="Tm7bUbzxlXtxKHM9v3Qe-5" value="" style="edgeStyle=orthogonalEdgeStyle;rounded=0;orthogonalLoop=1;jettySize=auto;html=1;" edge="1" parent="1" source="Tm7bUbzxlXtxKHM9v3Qe-2" target="Tm7bUbzxlXtxKHM9v3Qe-4">
          <mxGeometry relative="1" as="geometry" />
        </mxCell>
        <mxCell id="Tm7bUbzxlXtxKHM9v3Qe-2" value="long long a[5];" style="shape=parallelogram;perimeter=parallelogramPerimeter;whiteSpace=wrap;html=1;fixedSize=1;" vertex="1" parent="1">
          <mxGeometry x="354" y="90" width="120" height="60" as="geometry" />
        </mxCell>
        <mxCell id="Tm7bUbzxlXtxKHM9v3Qe-7" value="" style="edgeStyle=orthogonalEdgeStyle;rounded=0;orthogonalLoop=1;jettySize=auto;html=1;" edge="1" parent="1" source="Tm7bUbzxlXtxKHM9v3Qe-4" target="Tm7bUbzxlXtxKHM9v3Qe-6">
          <mxGeometry relative="1" as="geometry" />
        </mxCell>
        <mxCell id="Tm7bUbzxlXtxKHM9v3Qe-4" value="cin &amp;gt;&amp;gt; a[0];" style="shape=parallelogram;perimeter=parallelogramPerimeter;whiteSpace=wrap;html=1;fixedSize=1;" vertex="1" parent="1">
          <mxGeometry x="354" y="170" width="120" height="60" as="geometry" />
        </mxCell>
        <mxCell id="Tm7bUbzxlXtxKHM9v3Qe-9" value="" style="edgeStyle=orthogonalEdgeStyle;rounded=0;orthogonalLoop=1;jettySize=auto;html=1;" edge="1" parent="1" source="Tm7bUbzxlXtxKHM9v3Qe-6" target="Tm7bUbzxlXtxKHM9v3Qe-8">
          <mxGeometry relative="1" as="geometry" />
        </mxCell>
        <mxCell id="Tm7bUbzxlXtxKHM9v3Qe-29" value="True" style="edgeLabel;html=1;align=center;verticalAlign=middle;resizable=0;points=[];" vertex="1" connectable="0" parent="Tm7bUbzxlXtxKHM9v3Qe-9">
          <mxGeometry x="-0.2137" y="-2" relative="1" as="geometry">
            <mxPoint as="offset" />
          </mxGeometry>
        </mxCell>
        <mxCell id="Tm7bUbzxlXtxKHM9v3Qe-13" value="" style="edgeStyle=orthogonalEdgeStyle;rounded=0;orthogonalLoop=1;jettySize=auto;html=1;" edge="1" parent="1" source="Tm7bUbzxlXtxKHM9v3Qe-6" target="Tm7bUbzxlXtxKHM9v3Qe-12">
          <mxGeometry relative="1" as="geometry" />
        </mxCell>
        <mxCell id="Tm7bUbzxlXtxKHM9v3Qe-6" value="if(a[0] &amp;lt;= 0 || a[0] &amp;gt; 1e12)" style="rhombus;whiteSpace=wrap;html=1;" vertex="1" parent="1">
          <mxGeometry x="327" y="260" width="174" height="80" as="geometry" />
        </mxCell>
        <mxCell id="Tm7bUbzxlXtxKHM9v3Qe-10" style="edgeStyle=orthogonalEdgeStyle;rounded=0;orthogonalLoop=1;jettySize=auto;html=1;entryX=0.5;entryY=0;entryDx=0;entryDy=0;" edge="1" parent="1" source="Tm7bUbzxlXtxKHM9v3Qe-8" target="Tm7bUbzxlXtxKHM9v3Qe-43">
          <mxGeometry relative="1" as="geometry">
            <mxPoint x="160" y="710" as="targetPoint" />
            <Array as="points">
              <mxPoint x="150" y="880" />
              <mxPoint x="419" y="880" />
            </Array>
          </mxGeometry>
        </mxCell>
        <mxCell id="Tm7bUbzxlXtxKHM9v3Qe-8" value="cout &amp;lt;&amp;lt; &quot;ERROR&quot;" style="shape=parallelogram;perimeter=parallelogramPerimeter;whiteSpace=wrap;html=1;fixedSize=1;" vertex="1" parent="1">
          <mxGeometry x="100" y="270" width="120" height="60" as="geometry" />
        </mxCell>
        <mxCell id="Tm7bUbzxlXtxKHM9v3Qe-16" style="edgeStyle=orthogonalEdgeStyle;rounded=0;orthogonalLoop=1;jettySize=auto;html=1;" edge="1" parent="1" source="Tm7bUbzxlXtxKHM9v3Qe-12" target="Tm7bUbzxlXtxKHM9v3Qe-42">
          <mxGeometry relative="1" as="geometry">
            <mxPoint x="70" y="940" as="targetPoint" />
          </mxGeometry>
        </mxCell>
        <mxCell id="Tm7bUbzxlXtxKHM9v3Qe-28" value="False" style="edgeLabel;html=1;align=center;verticalAlign=middle;resizable=0;points=[];" vertex="1" connectable="0" parent="Tm7bUbzxlXtxKHM9v3Qe-16">
          <mxGeometry x="-0.0142" y="1" relative="1" as="geometry">
            <mxPoint as="offset" />
          </mxGeometry>
        </mxCell>
        <mxCell id="Tm7bUbzxlXtxKHM9v3Qe-19" value="" style="edgeStyle=orthogonalEdgeStyle;rounded=0;orthogonalLoop=1;jettySize=auto;html=1;" edge="1" parent="1" source="Tm7bUbzxlXtxKHM9v3Qe-12" target="Tm7bUbzxlXtxKHM9v3Qe-18">
          <mxGeometry relative="1" as="geometry" />
        </mxCell>
        <mxCell id="Tm7bUbzxlXtxKHM9v3Qe-12" value="for (int i = 1; i &amp;lt; 5; i++)" style="rhombus;whiteSpace=wrap;html=1;" vertex="1" parent="1">
          <mxGeometry x="316" y="400" width="196" height="80" as="geometry" />
        </mxCell>
        <mxCell id="Tm7bUbzxlXtxKHM9v3Qe-21" value="" style="edgeStyle=orthogonalEdgeStyle;rounded=0;orthogonalLoop=1;jettySize=auto;html=1;" edge="1" parent="1" source="Tm7bUbzxlXtxKHM9v3Qe-18" target="Tm7bUbzxlXtxKHM9v3Qe-20">
          <mxGeometry relative="1" as="geometry" />
        </mxCell>
        <mxCell id="Tm7bUbzxlXtxKHM9v3Qe-18" value="cin &amp;gt;&amp;gt; a[i];" style="shape=parallelogram;perimeter=parallelogramPerimeter;whiteSpace=wrap;html=1;fixedSize=1;" vertex="1" parent="1">
          <mxGeometry x="354" y="500" width="120" height="60" as="geometry" />
        </mxCell>
        <mxCell id="Tm7bUbzxlXtxKHM9v3Qe-26" style="edgeStyle=orthogonalEdgeStyle;rounded=0;orthogonalLoop=1;jettySize=auto;html=1;" edge="1" parent="1" source="Tm7bUbzxlXtxKHM9v3Qe-20" target="Tm7bUbzxlXtxKHM9v3Qe-34">
          <mxGeometry relative="1" as="geometry">
            <mxPoint x="413.5" y="750" as="targetPoint" />
          </mxGeometry>
        </mxCell>
        <mxCell id="Tm7bUbzxlXtxKHM9v3Qe-33" value="False" style="edgeLabel;html=1;align=center;verticalAlign=middle;resizable=0;points=[];" vertex="1" connectable="0" parent="Tm7bUbzxlXtxKHM9v3Qe-26">
          <mxGeometry x="0.0098" relative="1" as="geometry">
            <mxPoint x="1" as="offset" />
          </mxGeometry>
        </mxCell>
        <mxCell id="Tm7bUbzxlXtxKHM9v3Qe-31" value="" style="edgeStyle=orthogonalEdgeStyle;rounded=0;orthogonalLoop=1;jettySize=auto;html=1;" edge="1" parent="1" source="Tm7bUbzxlXtxKHM9v3Qe-20" target="Tm7bUbzxlXtxKHM9v3Qe-23">
          <mxGeometry relative="1" as="geometry" />
        </mxCell>
        <mxCell id="Tm7bUbzxlXtxKHM9v3Qe-32" value="True" style="edgeLabel;html=1;align=center;verticalAlign=middle;resizable=0;points=[];" vertex="1" connectable="0" parent="Tm7bUbzxlXtxKHM9v3Qe-31">
          <mxGeometry x="0.1818" y="-2" relative="1" as="geometry">
            <mxPoint as="offset" />
          </mxGeometry>
        </mxCell>
        <mxCell id="Tm7bUbzxlXtxKHM9v3Qe-20" value="if&amp;nbsp;&lt;div&gt;(a[i] &amp;lt;= 0 || a[i] &amp;gt; 1e12)&lt;/div&gt;" style="rhombus;whiteSpace=wrap;html=1;" vertex="1" parent="1">
          <mxGeometry x="324" y="620" width="179" height="80" as="geometry" />
        </mxCell>
        <mxCell id="Tm7bUbzxlXtxKHM9v3Qe-25" style="edgeStyle=orthogonalEdgeStyle;rounded=0;orthogonalLoop=1;jettySize=auto;html=1;entryX=0.5;entryY=0;entryDx=0;entryDy=0;" edge="1" parent="1" source="Tm7bUbzxlXtxKHM9v3Qe-23" target="Tm7bUbzxlXtxKHM9v3Qe-43">
          <mxGeometry relative="1" as="geometry">
            <mxPoint x="120" y="660" as="targetPoint" />
            <Array as="points">
              <mxPoint x="150" y="660" />
              <mxPoint x="150" y="880" />
              <mxPoint x="419" y="880" />
            </Array>
          </mxGeometry>
        </mxCell>
        <mxCell id="Tm7bUbzxlXtxKHM9v3Qe-23" value="cout &amp;lt;&amp;lt; &quot;ERROR&quot;" style="shape=parallelogram;perimeter=parallelogramPerimeter;whiteSpace=wrap;html=1;fixedSize=1;" vertex="1" parent="1">
          <mxGeometry x="170" y="630" width="120" height="60" as="geometry" />
        </mxCell>
        <mxCell id="Tm7bUbzxlXtxKHM9v3Qe-35" style="edgeStyle=orthogonalEdgeStyle;rounded=0;orthogonalLoop=1;jettySize=auto;html=1;" edge="1" parent="1" source="Tm7bUbzxlXtxKHM9v3Qe-34" target="Tm7bUbzxlXtxKHM9v3Qe-37">
          <mxGeometry relative="1" as="geometry">
            <mxPoint x="270" y="780" as="targetPoint" />
          </mxGeometry>
        </mxCell>
        <mxCell id="Tm7bUbzxlXtxKHM9v3Qe-36" value="True" style="edgeLabel;html=1;align=center;verticalAlign=middle;resizable=0;points=[];" vertex="1" connectable="0" parent="Tm7bUbzxlXtxKHM9v3Qe-35">
          <mxGeometry x="-0.162" y="-1" relative="1" as="geometry">
            <mxPoint as="offset" />
          </mxGeometry>
        </mxCell>
        <mxCell id="Tm7bUbzxlXtxKHM9v3Qe-41" style="edgeStyle=orthogonalEdgeStyle;rounded=0;orthogonalLoop=1;jettySize=auto;html=1;" edge="1" parent="1" source="Tm7bUbzxlXtxKHM9v3Qe-34">
          <mxGeometry relative="1" as="geometry">
            <mxPoint x="414" y="360" as="targetPoint" />
            <Array as="points">
              <mxPoint x="414" y="850" />
              <mxPoint x="650" y="850" />
              <mxPoint x="650" y="360" />
            </Array>
          </mxGeometry>
        </mxCell>
        <mxCell id="Tm7bUbzxlXtxKHM9v3Qe-34" value="else if&amp;nbsp;&lt;div&gt;(a[i - 1] &amp;lt; a[i])&lt;/div&gt;" style="rhombus;whiteSpace=wrap;html=1;" vertex="1" parent="1">
          <mxGeometry x="322" y="740" width="183.5" height="80" as="geometry" />
        </mxCell>
        <mxCell id="Tm7bUbzxlXtxKHM9v3Qe-38" style="edgeStyle=orthogonalEdgeStyle;rounded=0;orthogonalLoop=1;jettySize=auto;html=1;entryX=0.5;entryY=0;entryDx=0;entryDy=0;" edge="1" parent="1" source="Tm7bUbzxlXtxKHM9v3Qe-37" target="Tm7bUbzxlXtxKHM9v3Qe-43">
          <mxGeometry relative="1" as="geometry">
            <mxPoint x="110" y="780" as="targetPoint" />
            <Array as="points">
              <mxPoint x="150" y="780" />
              <mxPoint x="150" y="880" />
              <mxPoint x="419" y="880" />
            </Array>
          </mxGeometry>
        </mxCell>
        <mxCell id="Tm7bUbzxlXtxKHM9v3Qe-37" value="cout &amp;lt;&amp;lt; &quot;LOSS&quot;" style="shape=parallelogram;perimeter=parallelogramPerimeter;whiteSpace=wrap;html=1;fixedSize=1;" vertex="1" parent="1">
          <mxGeometry x="170" y="750" width="120" height="60" as="geometry" />
        </mxCell>
        <mxCell id="Tm7bUbzxlXtxKHM9v3Qe-44" value="" style="edgeStyle=orthogonalEdgeStyle;rounded=0;orthogonalLoop=1;jettySize=auto;html=1;" edge="1" parent="1" source="Tm7bUbzxlXtxKHM9v3Qe-42" target="Tm7bUbzxlXtxKHM9v3Qe-43">
          <mxGeometry relative="1" as="geometry">
            <Array as="points">
              <mxPoint x="80" y="880" />
            </Array>
          </mxGeometry>
        </mxCell>
        <mxCell id="Tm7bUbzxlXtxKHM9v3Qe-42" value="cout &amp;lt;&amp;lt; &quot;WIN&quot;" style="shape=parallelogram;perimeter=parallelogramPerimeter;whiteSpace=wrap;html=1;fixedSize=1;" vertex="1" parent="1">
          <mxGeometry x="20" y="750" width="120" height="60" as="geometry" />
        </mxCell>
        <mxCell id="Tm7bUbzxlXtxKHM9v3Qe-43" value="End" style="ellipse;whiteSpace=wrap;html=1;" vertex="1" parent="1">
          <mxGeometry x="364" y="900" width="110" height="70" as="geometry" />
        </mxCell>
      </root>
    </mxGraphModel>
  </diagram>
</mxfile>
